<?xml version="1.0" encoding="UTF-8"?>
<svg id="Layer_1" data-name="Layer 1" xmlns="http://www.w3.org/2000/svg" viewBox="0 0 3000 3000">
  <defs>
    <style>
      .cls-1 {
        fill: #1e2d44;
      }

      .cls-2 {
        fill: #fff;
        stroke: #fff;
        stroke-miterlimit: 10;
        stroke-width: 2px;
      }
    </style>
  </defs>
  <rect class="cls-1" width="3000" height="3000"/>
  <path class="cls-2" d="m2895.43,1461.24c-13.32-.09-26.28,14.56-22.43,29.58-37.04,22.37-78.59,40.7-117.95,58.83s-83.37,39.56-126.5,45.36c-28.03,3.78-99.53-1.94-79.91-44.44,17.98-38.95,56.59-74.3,84.44-106.41,30.54-35.22,62.14-69.56,92.28-105.11,7.21-8.5,5.63-7.19,15.18-8.17s16.65,2.37,25.16-4.73c12.08-10.09,12.01-31.13-.76-40.68s-31.9-3.9-37.83,10.39c-3.31,7.97-.31,14.52.11,22.37.58,11,1.94,9.34-8.07,19.08-33.81,32.87-64.67,69.18-96.31,104.14-59.47,65.7-111.41,145.09-205.52,158.17-46.54,6.47-94.8,1.16-141.63,1.23-47.94.07-95.06,5.48-142.6,11.06-37.21,4.37-92.03-2.75-122.46,22.47-33.31,27.61-58.76,64.49-93.1,91.91-17.3,13.81-32.92,26-56.08,24.63-21.3-1.26-43.33-8.82-62.88-16.95-34.53-14.35-72.65-41.21-63.28-84.09,8.46-38.73,50.2-76.44,73-107.94,25.18-34.79,43.96-77.47,87.58-90.64,22.14-6.68,45.24-10.5,67.75-15.75,18.57-4.34,43.89-16.34,62.79-15.53,10.94.47,8.2,4.24,17.67,9.92,6.93,4.16,17.64,4.11,24.35-.61,12.72-8.95,11.1-29.42-1.87-37.15-16.91-10.08-32.35,5.23-33.18,22.11-27.11,5.22-55.55,7.51-83.02,11.41-25.82,3.67-57.62,11.68-40.63-24.74,12.76-27.34,25.78-54.65,39.1-81.72,10.77-21.88,21.32-51.24,43.04-64.73,23.68-14.7,53.81-4.95,78.41,2.27s57.03,14.69,77.17,31.17c21.44,17.54,25.32,51.73,30.97,77.09,3.29,14.76,6.35,29.58,9.36,44.4,2.05,10.1,9.97,28.93,7.87,39.07-2.38,11.49-16.88,16.97-9.11,32.42,4.84,9.64,17.13,14.32,27.31,10.01,24.91-10.56,9.51-42.47-13.65-41.6-8.97-42.92-12.87-87.29-20.22-130.59-2.88-16.99-11.64-39.28-3.19-55.77,8.02-15.66,29.67-27.39,43.94-36.56,37.91-24.37,78.44-45.31,118.24-66.39,36.12-19.13,80.77-51.85,121.9-57.1s82.26,44.49,110.92,68.53c-8.29,15.66-2.28,39.87,19.64,35.83,17.42-3.21,22.69-27.19,8.81-38.2-9.85-7.81-16.35,1.01-24.43-.71-7.48-1.59-16.01-12.9-22.12-18.56-17.14-15.89-40.26-29.9-54.11-48.75-31.8-43.29,20.53-81.15,55.15-97.95,24.73-12,49.74-23.45,74.58-35.22,16.06-7.6,47.61-24.47,64.55-28.95,11.03,1.03,19.83,16.14,32.29,1.3,5.74-6.84,5.68-19.54.69-26.74-15.23-22-42.51-.21-36.22,21.84-31.54,17.73-66.97,30.9-100.27,45.16-14.36,6.15-36.99,20.83-52.87,20.42-16.94-.44-17.02-25.49-27.15-26.3-11.87-.95-10.12,32.89-11.57,39.79-3.52,16.74-12.27,31.47-23.46,44.22-24.48,27.89-59.38,45.52-91.57,62.79-66.66,35.76-136.44,82.32-209.89,102.23-49.52,13.42-166.43-1.42-176.78-65.7-11.13-69.1,57.15-142.51,97.7-190.27,48.47-57.09,106.03-90.91,176.81-114.35,38.03-12.6,76.21-24.79,114.41-36.83,18.62-5.87,37.3-11.56,55.97-17.3,13.7-4.21,33.11-16.11,47.12-16.45,11.93-.29,4.85,1.11,14.26,8.2,5.9,4.45,13.3,7.28,20.89,6.24,14.57-2,23.62-17.08,20.24-31.34-3.24-13.65-17.46-21.06-30.8-16.9-16.96,5.29-17,23.33-33.62,28.1-46.74,13.39-93.94,26.01-141.37,36.91-19.05,4.38-38.09,8.84-56.98,13.88-14.72,3.93-39.56,15.72-54.8,12.55-23.97-4.99-18.58-72.82-20.21-92.92-2.92-35.87-11.32-77.02-3.68-112.61s35.57-63.21,56.5-89.79c23.96-30.44,49.06-59.94,74.61-89.04,2.99-3.41,9.97-14.55,14.23-16.14,5.75-2.14,13.94,3.67,20.98,1.09,11.84-4.34,16.96-18.74,11.75-30.16-5.11-11.2-18.57-16.04-29.57-10.45-19.87,10.09-5.18,24.35-8.27,37.54-2.78,11.84-26.66,29.64-34.72,38.72-12.64,14.24-25.13,28.6-37.58,43-24.48,28.28-46.73,61.92-73.86,87.49-25.37,23.92-66.68,29.05-99.03,38.5-19.52,5.7-39.05,11.34-58.66,16.7-13.65,3.73-36,12.6-50.07,7.3-31.54-11.86-17.92-74.24-14.1-98.22,11.99-75.29,55.49-143.13,90.94-209.39,9.48-17.72,19.11-35.36,28.65-53.05,4.33-8.03,8.16-16.6,13-24.33,6.49-10.37,4.88-7.87,15.8-10.34,24.93-5.65,40.5-41.67,8.19-51.67-12.34-3.82-26.29,1.14-31.74,13.04-2.43,5.3-2.66,12.27-1.55,17.91,1.23,6.24,9.69,12.91,10.18,17.34,1.28,11.67-20.48,37.46-26.17,47.42-10.18,17.8-20.35,35.61-30.5,53.42-19.02,33.35-37.27,67.4-58.55,99.39-23.72,35.66-48.75,39.09-79.8,9.34-55.86-53.5-101.96-120.03-149.26-181.04-21-27.09-45-53.68-63.11-82.76,15.78-18.61,1.54-52.45-22.91-34.62-20.24,14.75-2.01,45.19,20.8,36.14,25.74,31.24,47.69,67.64,71.79,100.38,29.49,40.06,58.69,80.24,89.57,119.26,14.13,17.86,33.71,37.2,42.77,58.32s-.83,41-10.35,59.86c-7.85,15.55-20,45.54-37.47,52.09-19.74,7.41-44.38-21.38-58.09-32.95-8.73-7.37-17.04-15.17-25.64-22.66-1.95-1.7-5.46-4.14-6.99-6.16-5.64-7.47-2.95-5.26-5.21-13.21-2.61-9.14-2.14-17.79-13.36-20.74-9.8-2.57-18.24,3.65-20.62,12.88-2.24,8.69,1.53,18.01,9.9,21.58,4.99,2.13,9.01-.27,13.86.04,7.85.52,5.58-1.8,13.1,2.07,18.57,9.56,36.11,33.28,51.08,47.63s29.69,29.61,38.17,49.77c7.47,17.76,19.92,46,17.24,65.53-2.97,21.64-26.38,22.65-43.94,24.95-25.48,3.34-51.57,6.41-77.29,6.81-50.36.78-82.57-33.55-116.74-66.3s-62.07-63.36-80.51-105.03c-19.39-43.82-26.8-84.29-9.27-129.84,18.17-47.21,40.38-92.93,59.32-139.87,17.17-42.54,33.38-85.45,50.35-128.07,4.06-10.2,7.06-21.9,12.24-31.55,6.5-12.11,11.22-8.29,21.33-16.42,11.92-9.58,11.75-30.5-3.27-37.22s-31.01,6.4-29.43,22c1.13,11.14,9.23,14.61,8.56,24.82s-8.96,23.08-12.65,32.21c-18.88,46.77-39.66,92.88-60.3,138.9-10.06,22.42-20.06,44.89-30.96,66.91-8.65,17.47-18.78,45.21-37.66,54.54-28.17,13.91-74.01-78.09-87.27-98.58s-27.05-42.13-40.35-63.34c-6.52-10.4-12.69-21.1-19.64-31.22-7.86-11.45-10.03-10.47-6.38-20.57,4.6-12.71,14.46-27.8-3.6-37.52-16.22-8.73-34.09,6.7-32.8,23.7,1.55,20.35,22.32,16.2,32.05,29.34,13.34,18.02,22.22,43.82,33.33,63.65,24.34,43.46,48.94,86.79,73,130.4,23.57,42.73,43.62,88.26,59.88,134.28,8.24,23.32,12.64,41.9,4.92,65.75-6.99,21.61-16.15,42.47-26.81,62.51-3.64,6.84-9.9,23.54-17.84,26.31-9.57,3.34-16.21-11.46-22.65-3.45-3.02,3.76-.01,32.61-.6,38.61-2.64,26.97-7.06,54.1-12.62,80.63-4.43,21.15-8.69,61.8-37.17,46.37-39.24-21.26-80.1-42.92-101.1-83.86-9.3-18.14-21.74-45.2-14.92-65.96,6.63-20.2,31.55-32.3,48.22-43.02,33.81-21.75,80.14-42.7,98.7-80.95,4.64-9.56,5.73-20.77,9.24-30.83,4.79-13.75,8.01-10.9,18.75-18.97,14.88-11.18,11.11-37.18-9.98-38.08-8.29-.36-16.07,5.06-19.43,12.54-4.97,11.09,1.96,14.8,4.64,23.84,5.09,17.14-4.69,31.83-14.89,46.22-25.71,36.29-67.84,60.06-105.32,82.38-11.91,7.1-34.91,24.28-49.9,18.26-15.64-6.28-20.93-37.26-24.76-51.01-13.46-48.31-25.62-97.05-37.85-145.69-6.14-24.4-12.15-48.84-17.99-73.32-3.05-12.77-6.05-25.55-9-38.35-4.08-15.62-6.99-22.91-6.71-28.87,2.14-5.64,12.2-8.16,14.54-16.5,2.5-8.89.18-17.74-7.33-23.36-15.96-11.96-38.9,3.36-34.74,22.57,2.22,10.28,9.37,11.4,16.09,16.97,4.63,3.84,4.47.8,7.99,6.54,2.44,3.97,2.25,12.56,3.02,17.2,4.22,25.35,8.3,50.7,13.1,75.95,9.2,48.35,22.11,96.13,30.45,144.6,2.43,14.13,9.47,40.97-10.23,45.23-18.2,3.94-46.46-18.16-60.75-27.07-35.82-22.34-75.93-62.1-117.3-72.36,3.39,7.67,19.69,15.32,27.35,21.09,11.58,8.73,23.24,17.36,34.96,25.91,23.87,17.42,48.02,34.47,72.47,51.06,15.51,10.52,55.9,28.52,52.89,52.14-2.66,20.89-44.9,37.27-61.13,46.05-25.17,13.61-50.93,26.46-76.84,38.61-3.22,1.51-9.31,5.86-12.72,5.71-4.28-.18-8.11-6.24-13.56-6.96-10.5-1.38-20.81,7.35-19.95,18.12.78,9.76,9.83,16.49,19.16,14.85,12.28-2.16,8.96-10.64,14.23-18.26,11.29-16.32,50.46-25.12,69.51-32.92,26.06-10.66,53.56-25.19,81.04-31.49,29.56-6.78,40.24,18.22,50.23,41.53,23.49,54.85,27.29,106.55,30.87,165.25,1.8,29.56,6.66,58.08,11.26,87.24s-5.73,36.64-34.88,36.45c-23.24-.15-62.54,4.37-82.67-8.9-20.67-13.63-36.14-48.08-50.66-67.96-16.64-22.79-33.16-45.69-49.88-68.42-10.06-13.67-2.16-12.57-4.15-28.27-1.33-10.47-8.84-18.71-20.28-17.44-12.01,1.34-18.6,13.24-16.44,24.53,2.58,13.48,9.97,12.87,20.7,15.94,21.41,6.14,34.98,37.65,47.47,57.53,12.89,20.52,35.76,47.34,36.51,72.5s-30.64,31.98-50.98,37.06c-21.92,5.48-47.24,10.43-62.57-9.84s-24.72-47.14-40.35-68.55c-33.39-45.74-73.63-87.09-101.22-136.89-26.75-48.29-45.88-105.11-54.35-159.66-9.43-60.68,23.71-97.88,58.6-143.49,12.71-16.61,31.9-54.35,51.26-61.85,9.97-3.86,18.42,2.72,24.61-10.15,4.55-9.46.63-22.44-7.85-28.08-22.91-15.25-34.14,11.82-30.13,29.48,1.61,7.1,4.62,4.62,2.54,12.1-1.58,5.7-10.94,13.18-14.74,17.79-9.46,11.45-18.9,22.93-28.38,34.36-16.61,20.03-34.71,48.53-57.01,62.54-25.02,15.73-38.01-8.43-46.33-29.28-20.28-50.79-24.86-107.03-34-160.61-3.05-17.91.41-13.78,8.76-26.63,5.07-7.8,5.32-19.58.5-27.55-10.23-16.9-36.49-14.67-44.1,3.2-9.21,21.63,8.85,34.93,28.26,35.21,6.29,26.59,8.77,54.78,12.91,81.85,2.61,17.09,18.62,65,6.98,79.83-12.01,15.31-53.22-10.39-76.72-18.48-17.22-6.43-35.82-11.84-52.25-19.57-1.38-.65-1.39-20.54-11.13-24.67-10.35-4.39-21.94,1.85-25.27,12.51-6.94,22.22,23.44,33.48,35.29,14.49,35.27,10.8,70.64,25.99,111.17,44.48,58.21,37.24,73.62,129.36,87.55,191.59,7.8,34.85,14.57,70.09-22.44,89.38-32.54,16.97-74.94,21.55-111.05,22.44-80.25,1.98-160.87-22.46-238.72-39.15-17.93-3.84-35.91-7.42-53.75-11.62-8.16-1.92-17.46-3.02-25.27-6-12.44-4.74-7.51-6.23-15.83-15.17-12.24-13.15-35,.69-30.3,17.69,5.21,18.81,29.46,14.66,34.95-1.31,98.42,15.38,191.28,66.31,292.03,70.16,54.33,2.07,103.54-18.68,156.77-21.63,49.78-2.76,80.28,55.34,106.07,90.79,29.8,40.95,58.04,85.79,74.63,133.92,5.57,16.15,17.39,48.15,3.52,63.08s-48.19,1.91-65.38-1.59c-26.3-5.35-52.64-10.52-78.71-16.91-21.48-5.27-47.22-9.61-61.22-28.65-14.23-19.35-10.07-46.91-8.98-69.34,1.32-27.09,4.25-54.02,6.2-81.06.4-5.61-.58-13.54,1.22-18.83,3.05-8.96,2.77-4.37,8.7-10.4,7.05-7.19,14.82-12.75,12.54-24.24-4.38-22.1-34.67-25.48-42.55-3.93-4.06,11.1,2.24,17.04,8.44,25.14,4.14,5.41,6.03,3.42,7.81,10.09,1.44,5.39-1.68,15.45-2.26,21.1-2.72,26.49-4.96,53.1-9.05,79.42-2.58,16.61-6.19,55.68-30.63,53.76-19.45-1.52-40.17-34.74-50.63-48.71-6.23-8.31-17.4-19.81-20.81-29.55-3.6-10.28,3.49-14.31,2.26-25.91-2.3-21.67-31.22-24.39-39.76-5.17-11.62,26.15,18.1,25.43,30.4,34.05,17.03,11.93,28.46,40.5,43.23,56,8.17,8.57,17.52,15.48,26.14,23.47,13.26,12.29,8.04,13.17,5.43,27.7-4.5,25,19.98,25.99,37.95,26.1,52,.32,104.35,13.45,153.12,30.69,49.65,17.55,84.84,38.94,99.03,92.48,11.61,43.81,28.5,100.82,3.95,144.08-22.13,39-71.81,54.65-114.12,52.71-50.12-2.3-96.04-27.68-134.4-58.43-40.13-32.16-61.51-73.86-82.27-120.03-10.36-23.04-21.76-47.26-29.3-71.26,23.59-7.38,9.72-46.84-13.91-40.9-27.2,6.83-19.26,48.29,9.65,42.08,12.32,23.77,22.71,53.28,29.24,79.43,10.97,43.89-19.91,23.89-40.76,7.45-41.83-32.98-77.9-71.16-118.83-104.76-25.86-21.23-54.03-41.81-77.5-65.63,11.15-12.05,4.13-36.28-13-38.5-17.98-2.32-31.76,20.78-20.95,35.44,5.61,7.62,12.26,7.11,20.79,7.65,14.32.9,16.29,3.2,28.3,14.27,18.25,16.82,36.73,33.32,55.28,49.81,36.75,32.66,73.37,65.32,109.78,98.33,13.9,12.6,39.6,28.39,45.18,47.35,6.7,22.75-15.21,29.01-33.37,29.97-23.43,1.24-49.09-2.63-71.92-7.76s-31.17-16.08-37.99-38.86c-7.81-26.1-4.22-39.05-29.68-52.74-19.55-10.51-37.29-23.04-56.97-33.31-39.09-20.4-77.22-50.79-106.57-83.63-31.84-35.62-48.97-82.64-69.64-125.13-10.69-21.97-26.61-45.64-33.39-69.15-4.27-14.81,3.21-13.16,6.72-27.59,2.44-10.01-.04-19.69-8.13-26.36-42.2-34.82-63.8,64.43-6.29,45.86,18.45,56.15,47.78,109.48,76.45,159.55,5.93,12.93,7.36,25.83,11.74,38.81,4.38,12.98,12.44,12.12,24.53,20.07,24.72,16.26,46.31,38.46,69.44,56.92,22.07,17.62,45,28.34,69.13,42.11,22.06,12.58,32.27,44.99,36.57,68.72,5.91,32.65-18.64,43.52-43.01,58.84-25.85,16.25-51.59,35.64-79.17,48.76-29.97,14.26-37.93-6.89-52.86-30.47-15.7-24.8-31.41-49.7-49.75-72.66-3.72-4.65-11.71-10.87-13.79-16.28-3.22-8.38.38-7.68,2.26-16.23,2.28-10.32.84-22.4-7.38-29.86-16.5-14.95-42.32-4.16-45.26,16.86-3.56,25.35,14.78,29.35,34.37,29.98,13.45.43,14.8,5.91,23.39,18.25s17.19,25.56,25.49,38.53c10.86,16.96,46.46,55.82,42.69,76.89-3.79,21.18-48.76,4.79-63.93,1.64-60.94-12.66-120.37-30.46-180.66-45.59-3.94-.99-11.76-2.16-14.7-4.53s-3.7-8-6.53-12.1c-6.19-8.99-18.44-12.94-28.4-7.94-20.92,10.5-12.38,43.2,11.05,41.95,10.84-.58,18.44-7.76,21.54-17.73,79.07,15.71,156.19,46.39,234.66,65.84,42.94,10.64,58.8,27.99,77.38,67.87,12.92,27.73,38.99,81.67,4.37,103.34-16.19,10.13-39.42,10.57-57.79,13.62-20.99,3.49-42.03,6.7-62.99,10.36-8.7,1.52-17.27,5.07-24.58.86-5.47-3.15-5.61-11.49-14.37-13.58-14.87-3.55-26.83,10.49-23.59,24.84,3.37,14.92,20.22,20.31,31.86,10.38,6.07-5.19,5.79-12.21,12.8-15.72,6.93-3.46,22.47-2.54,30.57-3.81,21.52-3.37,43.06-6.58,64.59-9.88,13.38-2.05,39.54-12.93,38.63,7.69-.77,17.39-27.07,39.93-37.46,52.52-15.28,18.52-31.06,36.53-47.17,54.32-28.22,31.17-57.18,69.82-91.55,94.21-13.96-12.51-36.67-2.82-33.61,17.01,2.57,16.69,23.19,22.8,33.92,9.22,6.4-8.09,1.75-16.62,5.78-24.15,4.02-7.49,16.97-15.85,23.02-21.97,15.7-15.89,30.86-32.3,46.03-48.69,56.46-61,105.57-133.71,186.92-162.54,87.1-30.87,180.13-31.65,271.35-32.04,21.63-.09,43.47.61,64.96-2.15,10.01-1.29,19.95-3.22,29.67-5.94,5.67-1.59,25.3-11.83,30.76-8.85,17.52,9.6-11.31,111.92-15.25,129.44-1.32,5.86-2.89,24.66-7.17,29.31-4.65,5.05-14.69,2.55-20.95,8.7-11.11,10.91-7.14,31.38,8.1,35.98,20.24,6.1,26.35-14.57,23.02-29.75-2.22-10.1-4.45-10.21-2.21-21.2,2.33-11.39,5.62-22.64,8.25-33.97,9.75-42,11.13-90.16,28.1-129.91,14.89-34.89,49.66-64.28,80.39-85.14,74.57-50.6,155.92-35.38,226.35,15.15,64.61,46.36,137.48,126.16,91.14,208.14-20.36,36.02-48.5,70.13-80.03,96.94-22.16,18.84-73.32,52.51-95.56,16.68-11.08-17.85-14.62-42.6-20.74-62.47-6.46-21-13.32-41.89-21.01-62.47-10.14-27.12-22.11-53.62-33.67-80.16-6.11-14.02-13.37-28.02-18.53-42.29,29.02-16.02.22-55.53-22.08-34-9.76,9.42-7.75,24.32,3.49,31.53,4.68,3,12.21,1.69,15.71,4.87,2.96,2.68,4.79,13.12,6.3,17.01,16.73,43.27,35.18,85.83,47.77,130.57,6.39,22.7,22.64,66.44,3.24,86.49-19.15,19.81-64.54,24.79-90.23,31.28-67.59,17.06-124.22,49.32-186.48,79.33-30.76,14.83-62.06,31.79-94.67,42.16-32.72,10.41-65.59,9.54-99.35,5.76-33.1-3.71-66.03-9.37-98.95-14.38-37.72-5.75-75.42-11.69-113.25-16.74-58.8-8.29-65.14.38-87.62-17.81-16.75-17.76-52.77-17.06-48.76,16.37,1.43,11.91,11.12,21.9,23.21,22.86,18.27,1.45,17.61-12.7,28.37-21.08,9.91-7.72,33.29-1.8,45.92-.7,17.61,1.53,35.18,3.52,52.75,5.37,33.82,3.57,67.31,9.11,100.87,14.53s69,10.95,103.03,19.31c31.09,7.64,63.63,17.94,41.43,54.1-18.57,30.24-40.78,58.74-61.1,87.83-18.72,26.81-37.71,53.37-56.7,79.97-7.09,9.93-5.97,7.33-15.6,10.21-7.61,2.28-13.55,1.9-18.91,9.3-7.53,10.39-4.69,25.54,7.74,30.56,11.7,4.73,24.36-2.24,26.45-14.31,1.19-6.88-3.85-13.3-2.41-19.66,1.18-5.21,9.24-13.94,12.29-18.53,19.74-29.73,41.29-58.46,62.12-87.43,36.83-51.23,71.81-110.76,126.16-145.27,23.38-14.85,61.36-35.31,88.98-21.49,26.15,13.09,33.25,49.39,37.45,75.5,10.54,65.55-6.75,113.07-59.66,152.55-54.41,40.6-116.09,63.15-176.39,92.9-57.21,28.23-110.6,62.44-166.57,92.69-8.31,4.49-25.61,18.24-34.72,18.24-11.76,0-17.78-13.21-32.96-6.28-22.65,10.34-19.19,47.55,5.37,52.85,24.61,5.31,39.81-22.42,30.22-43.21,38.29-24.31,80.91-45.23,121.22-66.21,24.35-12.68,48.88-25.05,73.87-36.43,16.72-7.61,50.12-28.98,68.39-24.11-.41,22.75-14.59,50.6-20.47,72.93-7,26.56-13.44,53.26-19.29,80.1-10.72,49.19-14.31,101.34-28,149.62-34.68-1.1-39.98,51.78-5.46,55.16,35.45,3.47,38.3-42.88,9.14-54.57,8.15-59.95,24.29-120.5,39.63-179.03,14.82-56.53,25.35-119.71,76.17-154.91,24.62-17.05,50.3-33.16,75.36-49.6,31.88-20.92,29.32,11.67,27.63,36.45-2.17,31.75-6.52,63.92-9.62,95.59-1.05,10.72-2.5,25.67-2,38-5.44,8.79-19.49,8.37-15.35,22.28,3.02,10.12,14.86,14.51,23.15,7.46,12.11-10.28.64-18.25-2.76-27.5-8.61-23.4,2.79-61.76,5.62-86.39,5.35-46.55,3.38-128.03,58.21-146.97,25.07-8.66,52.28,2.43,75.8,11,25.8,9.41,54.88,20,76.42,37.57s23.49,46.73,24.52,73.58c1.17,30.33,1.24,62.3-4.4,92.23-9.96,52.88-60.64,91.1-112.02,97.35-31.44,3.82-58.44,4.36-89.95,7.61-29.64,3.06-67.61,4.71-95.91,14.22-8.81,2.96-27.89,7.95-32.25,15.26,56.7-10.45,114.54-21.54,172.15-26.82,31-.89,56.56-9.11,69.65,4.97,9.41,19.96-5.52,61.55-8.78,82.57-4.11,26.47-10.18,53.41-11.28,80.24-22.8,3.62-30.75,38.26-4.75,44.02,29.45,6.53,35.39-36.72,7.48-43.88,4.61-44.63,15.56-93.19,28.42-136.23,9.9-33.09,61.78-118.02,101.55-83.65,18.6,16.07,32.99,40.75,45.54,61.66,16,26.67,20.14,41.66,2.73,68.82-14.93,23.29-33.44,44.86-50.86,66.3-12.55,15.44-41.58,40.38-44.46,60.35-3.03,21.05,19.24,52.16,27.88,70.72,2.66,5.71,7.67,12.61,8.82,18.74,1.97,10.51-.69,4.92-3.05,14.31-2.39,9.53-2.81,22.53,11.12,22.9,10.75.28,16.47-11.17,13.21-20.46-2.12-6.06-6.92-6.61-10.51-10.41-4-4.23-6.39-6.19-9.6-13.28-5.73-12.67-11.22-25.44-16.88-38.15-4.36-9.81-15.97-25.93-15.9-36.69.12-18.68,33.79-48.4,45.44-62.94,17.53-21.89,34.69-44.25,52.91-65.57,21.15-24.75,34.79-20.72,57.83.07,19.62,17.7,35.83,38.99,51.59,60.09,16.37,21.92,31.94,44.57,46.44,67.77,16.38,26.2,14.61,43.98,3.92,72.19-11.63,30.68-26.57,59.77-40.08,89.65-3.2,7.08-6.08,14.87-9.86,21.36-51.41-20.86-24.63,78.23,8.67,35.01,4.76-6.18,5.76-14.77,3.07-22-4.79-12.91-8.56-7.69-4.86-20.66,4.12-14.44,13.81-29.1,20.17-42.74,11.64-24.99,20.65-55.48,36.73-77.62,11.97-16.49,24.63-19.83,7.69-39.79-14.44-17.03-29.16-31.89-42.17-50.51-26.47-37.86-51.87-78.66-83.64-112.39s-59.48-62-82.07-102.39c-45.31-80.99-36.28-179.72,3.79-261.71,20.45-41.85,49.17-79.56,76.06-117.38,11.36-15.98,23.73-39.35,44.92-43.22,20.23-3.7,41.18,13.87,56.97,24.29,20.54,13.55,42.88,26.11,62.19,41.36,14.43,11.39,6.37,31.96,23.62,38.91,18.58,7.5,36.62-14.54,25.18-31.32-9.86-14.45-26.62-2.35-38.93-8.32-18.57-9-37.32-27.79-55.2-39.41-19.44-12.64-39.51-24.01-59.48-35.75-38.44-22.59-50.31-64.93-22.22-103.23,23.99-32.7,73.92-61.37,114.61-62.61,44.14-1.35,81.86,31.19,108.54,63.04,28.09,33.54,49.65,72.81,63.3,114.33,15.4,46.86,10.93,87.1-11.52,130.77-19.21,37.36-45.24,76.59-78.82,102.51-37.39,28.85-77.35,22-121.22,16.13-19.02-2.54-38.08-5.54-57.01-8.12-2.97-24.54-38.95-26.25-40.02-.08-1.13,27.72,33.55,26.88,39.81,2.85,31.22,2.19,64.25,12.65,94.17,21.6,12.52,3.74,33.44,6.88,33.14,23.46-.26,14.48-20.12,31.76-28.58,42.21-23.57,29.1-47.79,57.75-72.59,85.81-11.35,12.85-23.08,25.33-34.31,38.28-13.79,15.9-13.62-.87-30.15,7-30.1,14.33,8.15,58.99,22.61,18.41,2.58-7.24,1.22-10.6,5.96-17.36s12.78-13.04,18.52-19.29c13.31-14.5,26.57-29.04,39.81-43.59,24.92-27.39,50.03-54.65,74.03-82.87,12.45-14.65,47.99-68.7,72.03-62.36,13.91,3.67,18.36,35.6,21.3,46.73,5.38,20.36,10.51,40.78,15.47,61.24,8.71,35.88,18.9,72.27,25.21,108.54-19.15,3.18-29.1,29.53-12.29,42.27,16.09,12.19,36.7-.65,35.64-19.64-.69-12.36-7.65-14.06-15.24-21.1-5.57-5.17-4.31-1.68-7.3-9.08-1.83-4.54-1.53-11.03-2.28-15.91-3.91-25.6-8.59-51.09-12.97-76.61-9.46-55.06-27.39-109,.45-161.16,13.3-24.92,27.19-49.62,41.86-73.76,11.44-18.83,26.92-45.79,51.92-47.08,24.11-1.24,47,24.3,63.86,38.6,21.26,18.04,42.39,36.25,63.96,53.92s41.89,33.26,64.27,48.1c18.33,12.15,35.8,24.97,37.08,48.7,2.61,48.3-37.53,106.01-60.94,145.9-27.22,46.39-57.45,91-90.78,133.22-16.91,21.42-34.54,42.32-53.01,62.41-10.05,10.93-36.84,39.96-54.69,34.7-8.52-2.51-10.75-16.32-23.91-16.32-9.95,0-18.5,7.26-21.25,16.66-5.76,19.67,15.29,37.19,33.01,25.55,7.96-5.22,10.46-14.65,11.56-23.17,31.88,3.31,36.96,13.54,46.42,44.13,6.95,22.48,14.52,45.22,20.06,67.98-46.55,6.88,2.84,70.85,20.17,30.37,8.55-19.99-12.83-24.1-19.55-35.06-2.65-9.79-7.04-27.66-9.83-38.49-10.6-41.06-21.09-71.76,7.76-107.29,12.43-15.31,58.49-81.49,76.82-56.47,12.32,16.82,14.67,48.93,19.58,68.91,5.43,22.1,10.05,44.51,15.37,66.55-26.37,10.65-18.67,53.92,11.53,46.45,29.94-7.41,17.52-46.51-9.86-46.82-7.7-36.8-13.63-74.84-19.63-112.06-7.69-47.74,9.85-76.44,38.34-113.42,10.54-13.68,24.74-35.86,42.74-40.23,19.73-4.79,38.53,13.06,52.46,24.46,36.11,29.55,62.3,51.94,71.27,99.63,5.55,29.5,6.83,62.24,6.77,92.02-27.03,7.42-21.27,49.74,7.13,44.42,26.05-4.88,22.35-46.63-5.44-44.71-.72-26.45-.07-53.13-1.59-79.76-.8-14.04-7.47-42.23,5.1-52.92,11.8-10.03,37.55,1.41,50.46,4.45,21.27,5.01,42.52,10.09,63.88,14.67,6.96,1.49,23.25,1.59,28.63,6.1,6.3,5.28,4.02,14.12,10.27,20.35,29.36,29.2,54.65-40.13,15.34-39.21-9.43.22-11.6,7.71-19.21,10.83-7.7,3.16-13.65,1.05-21.43-.46-21.02-4.09-41.86-9.2-62.6-14.49-38.92-9.92-75.48-18.41-107.5-43.83-26.97-21.41-66.33-52.57-72.59-88.69-6.08-35.1,21.48-82.02,35.04-113.32,17.61-40.63,34.17-72.3,82.71-74.31,28.95-1.2,58.25,2.22,87.1-1.35-27.59-5.61-56.57-4.78-84.58-6.76-17.42-1.23-40.33-1.56-52.36-16.09-13.06-15.77-15.56-44.26-21.28-63.42-13.17-44.17-31.85-88.11-39.54-133.68-2.7-15.96-5.86-40.52,15.47-43.35,18.57-2.46,41.57,16.46,56.65,24.97,76.53,43.18,160.42,72.29,202.6,155.17,41.92,82.36,40.94,185.11,44.72,275.26,4.09,97.7,7.77,280.87,11.39,293.96-33.25,2.32-34.19,54.02.21,55.18,36.51,1.23,36.14-52.62.92-55.1-3.56-60.51-3.41-121.84-.03-180.72.1-33.79.2-67.57.3-101.36.03-12.4-7.83-80.91,2.45-87.2,12.95-7.92,56.92,41.42,65.65,49.37,14.81,13.47,29.43,27.15,44.76,40.03,18.97,15.93,38.35,31.4,57.12,47.54,26.97,23.21,72.37,59.7,84.84,67.84-9.83,24.05,18.91,51.66,36.68,26.49,17.84-25.27-15.9-47.86-35.94-27.4-10.78-14.21-103.7-84.44-153.21-128.63-51.14-45.65-106.01-98.93-109.93-170.99-.59-10.75-4.25-37.49,10.34-39.46,12.56-1.7,30.64,24.2,37.66,31.98,25.45,28.25,49.66,57.72,74.39,86.6,7.07,8.26,13.91,16.81,21.27,24.82,8.47,9.22,6.6,6.8,7.02,16.86.57,13.59-2.8,27.36,15.3,30.7,37.78,6.96,28.49-61.56-10.12-39.41-43-52.85-83.6-107.99-129.01-159.06-14.53-16.34-54.65-47.17-42.19-73.16,11.84-24.72,68.24-24.1,90.98-26.01,37.61-3.16,76.51-7.46,114.15-7.47,3.75,28.21,41.9,30.31,42.64.34.68-27.79-39.92-29.93-42.75-2.31-57.93,4.96-120.91,3.8-179.01.13-63.13-4-67.09-57.65-60.9-111.18,1.86-16.11,4.6-32.04,7.98-47.9,3.19-14.92,11.43-34.48,9.33-49.55-13.56,15.29-17.45,52.47-21.86,72.75-4.95,22.78-4.98,51.75-13.73,73.14-17.34,42.39-95.26-18.84-118.07-32.95-40.28-24.92-81.82-52.15-115.07-86.15-15.21-15.55-29.67-34.63-27.8-57.71,1.87-23.17,22.1-34.04,39.04-46.63,40.85-30.38,75.9-68.23,117.19-97.77s85.9-38.06,132.48-47.17c46.46-9.08,107.07-23.55,153.32-7.61,47.34,16.32,37.42,66.13,33.06,106.09-2.11,19.3,1.16,58.57-16.08,71.16s-54.88,4.4-74.99,3.92c-56.96-1.36-116.08-5.52-172.88-2.56-4.84-29.62-49.02-31.43-43.76,1.35,2.13,13.29,12.9,20.74,26.15,17.06,7.51-2.08,9.99-9.94,15.43-12.58,5.98-2.9,12.89-1.62,20.6-1.09,39.31,2.69,78.74,4.51,118.08,6.69,35.75,1.97,76.86-1.23,111.23,9.68,31.66,10.05,55.71,37.32,78.51,60.18,24.34,24.41,51.65,50.43,69.41,80.2,17.75,29.76,20.05,63.75,23.25,97.48,3.71,39.08,5.77,78.46,7.86,117.66.85,15.93,5.87,41.39-1.23,53.28s-22.62,24.03-3.52,37.51c31.45,22.21,52.02-40.26,10.6-40.29-3.3-71.71-9.18-145.03-9.46-216.82-.16-39.39,41.05-19.44,64.9-9.3,31.98,13.59,59.49,34.64,88.58,53.28,33.36,21.37,67.15,44.25,102.87,61.14-26.85,40.11,45.75,54.77,39.48,11.66-1.01-6.99-4.47-12.81-10.62-16.38-9.83-5.71-15.85,1.68-24.2,1.37-16.49-.6-38.83-20.84-52.85-29.88-19.48-12.56-39.01-25.05-58.41-37.74-12.93-8.45-38.63-22.01-37.41-40.43,1.14-17.32,28.41-33.04,40.14-43.12,17.55-15.08,34.93-30.34,52.44-45.46,36.33-31.38,72.42-63.33,109.31-93.98,12.96,13.16,37.49,8.69,39.03-11.56,1.84-24.2-30.96-31.35-40.74-9.72-5.15,11.4,1.62,14.64-7.23,24.41-5.83,6.44-14.03,11.67-20.73,17.26-22.3,18.6-44.7,37.07-67.2,55.43-22.39,18.26-44.76,36.56-67.36,54.56-18.71,14.91-40.81,37.57-65.81,40.15-49.31,5.1-97.52-46.79-127.13-79.1-33.95-37.04-76.2-79.06-86.83-129.85-5.53-26.41-4.27-54.7-3.79-81.52.42-23.31-.15-51.52,16.87-69.75,33.96-36.4,98.2-56.79,144.72-39.46,52.4,19.52,100.22,54.14,149.79,79.87,24.97,12.96,50.26,25.28,75.55,37.6,12.86,6.27,25.71,12.57,38.5,18.97,8.78,4.39,24.85,8.6,31.78,15.48,10.37,10.29,4.97,46.44,36.09,29.75,17.85-9.57,14.19-37.54-5.45-42.59-10.09-2.59-20.28,2.01-24.97,11.2-44.59-19.64-88.47-45.9-130.94-69.95-21.15-11.98-42.4-24.01-62.97-36.97-16.31-10.27-45.33-24.36-21.55-42.34,17.48-13.22,45.85-16.99,66.1-25.02,22.18-8.8,43.89-18.75,65.32-29.22,22.9-11.19,45.5-23,68.07-34.85,10.43-5.48,20.88-10.93,31.28-16.46,2.8-1.49,9.51-6.6,12.35-6.63,5.68-.05,8.22,6.11,14.13,8.16,20.76,7.17,36.83-18.46,23.09-35.01-4.29-5.16-9.44-7.36-14.54-7.39Zm-2001.63,110.9c-9.87,7.77-21.36,12.38-33.25,16.01-20.84,6.35-42.22,10.3-63.64,14-34.02,5.86-68.36,9.24-102.56,13.76-28.62,3.77-57.15,8.27-85.75,12.21-19.67,2.71-39.29,6.14-59.26,6.26-3.75,0-7.51-.12-11.26.02-18.04.63-32.71-6.47-45.11-19.21-12.63-12.98-23.47-27.34-33.11-42.57-9.43-14.87-18.1-30.25-24.93-46.55-2.75-6.58-5.08-13.29-5.78-20.47-.89-9.07,1.34-17.07,7.46-23.95,5-5.61,10.33-10.84,16.16-15.59,21.92-17.86,45.94-32.37,71.19-44.92,15.27-7.58,31.5-11.64,48.49-13.3,27.36-2.68,54.66-2.15,82.05-.35,26.59,1.75,53.06,4.03,79.25,9.15,31.24,6.12,59.13,19.21,83.09,40.06,22.35,19.45,44.18,39.51,66.01,59.55,5.78,5.29,11.15,11.18,15.96,17.38,10.38,13.4,8.34,28.04-5.01,38.52Zm340.76,431.2c-5.14,13.32-11.44,26.1-18.39,38.54-20.3,36.36-40.69,72.65-61.16,108.9-2.77,4.88-5.98,9.55-9.44,13.95-5.17,6.57-12.18,9.67-20.58,9.9-8.74.26-17.13-1.57-25.5-3.8-16.35-4.35-31.87-11.04-47.74-16.76-25.04-9.03-50.6-16.62-75.23-26.79-4.49-1.86-8.94-3.89-13.36-5.92-9.03-4.12-14.92-11.12-18.42-20.27-3.63-9.47-6.47-19.21-8.26-29.17-2.8-15.52-5.18-31.1-5.83-46.88-.6-14.67.14-29.24,3.88-43.54,6.07-23.31,20.59-39.6,41.86-50.11,15.92-7.86,32.9-12.58,50.34-15.52,23.36-3.94,47-4.6,67.07-5,31.36.65,59.09,2.2,86.54,6.61,12.13,1.95,24.36,3.98,35.4,10.32,15.72,9.03,23.42,22.61,24.78,40.32.94,12.24-1.57,23.88-5.94,35.2Zm766.78-1315.67c46.2-14.16,92.04-29.5,138.8-41.86,6.89-1.83,13.8-3.51,20.93-4.11,12.44-1.05,18.69,2.81,23.56,14.5,3.95,9.47,5.15,19.58,6.43,29.59,3.52,27.54,5.51,55.23,6.55,84.88-.12,16.09,1.23,34.1-1.48,52.03-2.49,16.39-8.47,31.08-20.25,43-14.26,14.41-28.81,28.44-46.11,39.32-12.43,7.83-24.82,7.12-37.4.94-4.01-1.98-7.94-4.29-11.58-6.89-35.57-25.19-69.59-52.2-99.64-83.96-11.89-12.56-23.36-25.41-31.14-41.06-7.58-15.23-8.2-31.1-3.34-47.04,3.31-10.89,11.4-18.39,20.87-24.19,10.6-6.49,21.96-11.52,33.8-15.15Zm-136.98-40.89c-1.34-11.87-.17-23.25,5.32-33.94,11.84-23.02,23.82-45.97,38.02-67.62,3.48-5.31,7.75-10.18,12.24-14.67,12.07-12.07,28.21-8.83,35.57,6.83,3.4,7.26,4.71,15.06,5.69,22.85.98,7.8,1.09,15.7,1.49,22.24-2.75,34.26-5.12,67.21-12.03,99.6-4.77,22.35-18.12,39.22-35.02,53.63-4.91,4.18-6.41,4.03-12.03.42-7.74-4.98-13.55-11.77-18.16-19.67-8.04-13.78-12.06-29.05-15.99-44.31-2.14-8.32-4.14-16.72-5.11-25.34Zm26.85,161.47c3.05-5.58,6.23-11.17,9.97-16.3,9.89-13.64,24.55-15.83,38.32-5.94,6.72,4.84,12.49,10.8,18.21,16.76,20.01,20.87,40.49,41.25,62.41,60.15,16.49,14.23,33.82,27.36,51.61,39.91,3.97,2.8,7.78,5.92,11.29,9.26,8.78,8.35,10.27,21.92,3.01,31.54-9.72,12.92-20.42,25.01-32.8,35.5-5.77,4.88-12.24,8.7-19.02,11.95-7.54,3.63-15.44,5.84-23.36,5.01-9.34.22-17.73-1.83-26.01-4.32-31.17-9.38-63.22-12.46-95.55-13.93-10.49-.48-20.96-1.26-31.45-2.05-7.58-.55-14.69-2.89-21.36-6.54-5.81-3.15-8.8-7.69-8.27-14.63.37-4.95,1.45-9.64,3.34-14.15,6.54-15.56,12.96-31.16,19.85-46.55,12.84-28.76,24.75-57.96,39.82-85.68Zm-177.29-22.21c8.8-13.24,20.98-21.04,36.33-24.44,13.58-3.01,27.39-4.51,41.15-5.94,16.03-1.66,32.16-2.18,48.26-3.14,5.34-.32,10.32.75,15.12,3.4,12.04,6.66,14.09,10.66,12.89,24.47-1.41,16.29-6.86,31.44-12.4,46.57-16.01,43.83-36.76,85.32-62.22,124.43-14.79,22.73-31.87,43.55-51.89,61.92-8.61,7.9-18.06,14.64-28.54,19.84-2.68,1.32-5.41,2.58-8.23,3.58-14.93,5.26-21.35,2.51-27.84-13.23-2.43-5.89-2.97-12.4-3.31-18.76-.8-14.98-1.4-29.96-1.75-37.63-.05-25.34.02-43.35,2.66-61.22,4.61-31.3,13.61-61.39,25.25-90.74,4.01-10.12,8.46-19.98,14.52-29.11Zm-378.76,89.14c2.01-11.1,6.98-14.46,18.3-12.8,6.03.88,11.66,3.06,16.87,6.03,13.52,7.69,25.27,17.5,34.2,30.42,5.08,7.32,7.83,15.33,7.23,24.36-1.08,14.24-3.71,28.27-7.31,42.06-4.37,16.7-9.2,33.27-14.07,49.81-1.37,4.66-3.48,9.1-5.43,13.58-.89,2.05-1.95,4.11-3.38,5.8-5.91,7-13.64,8.35-19.78.17-2.45-3.24-4.17-7.12-5.77-10.9-4.46-10.4-6.66-21.48-9.26-32.42-7.34-30.79-10.37-62.16-12.44-93.64-.49-7.51-.51-15.04.83-22.47Zm127.42,505.53c-2.43,19.35-5.21,38.65-8.34,57.89-2.17,13.35-6.03,26.33-10.98,38.92-6.58,16.69-17.36,29.22-35.93,32.11-12.27,1.92-24.67,1.12-36.82-2.34-21.72-6.18-42.42-14.78-62.85-24.31-30.68-14.3-60.27-30.39-87.91-49.95-13.47-9.55-26.27-19.99-38.6-30.99-6.2-5.52-11.3-12-16.03-18.81-3.92-5.68-6.57-12-7.54-18.64-2.83-19.47-.74-38.14,10.4-55.1,4.84-7.41,11.32-12.92,18.49-17.86,17.19-11.86,36.56-19.02,56.21-25.31,20.69-6.63,41.63-12.46,62.45-18.67.05-.02.09-.03.15-.05,2.01-.57,16.64-4.38,29.08-7.66.23,1,.55,2,.94,3,.11.31.25.63.38.94.14.32.28.63.43.95.31.65.65,1.28,1.02,1.91.17.29.34.57.52.85.18.29.37.58.58.88.2.31.42.6.65.89.22.29.45.58.68.86.46.55.94,1.09,1.46,1.61.23.25.48.48.72.72.02.02.03.03.06.05.26.26.54.51.81.74.28.25.57.48.86.69.29.23.58.45.89.66.31.23.62.43.92.62.32.2.63.4.95.57.34.18.66.37,1,.52,1.21.62,2.49,1.11,3.83,1.45.25.08.51.14.75.18.25.06.51.11.77.15.28.06.55.11.85.14.2.03.4.06.62.08.08.02.17.03.26.03.28.03.58.05.88.06.52.03,1.06.05,1.61.03,14.76-.4,21.96-11.5,21.35-22.58-.22-12.33-10.04-21.73-22.61-21.65-10.26.06-22.16,11.77-21.7,22.12.02.34.05.68.08,1.03-20.75,4.74-50.92,11.84-61.5,14.12-.34.06-.66.14-.95.2-28.25,5.92-56.49,11.93-84.72,17.95-5.18,1.09-10.41,1.35-15.67,1.26-9.98-.18-18.07-4.23-24.42-11.9-5.98-7.23-10.21-15.63-15.13-24.01-2.32,3.11-.63,5.41.22,7.61,2.68,7.01,5.48,13.96,8.27,20.93,5.72,14.27,8.44,28.79,3.26,43.86-1.09,3.18-2.49,6.26-3.72,9.38-2.77,7.03-7.95,10.78-15.46,11.07-8.04.31-14.7-2.17-18.85-9.7-6.92-12.58-11.44-26.13-15.55-39.74-8.8-29.21-13.96-59.1-15.5-89.6-.69-13.55.25-27.02,1.89-40.43,2.15-17.62,11.67-30.39,26.39-39.86,18.19-11.72,37.91-19.61,58.9-24.48,20.89-4.86,42.14-7.38,63.47-8.74,24.51-1.55,48.66,2.12,72.62,7.01,10.27,2.09,20.41,4.77,30.51,7.66,20.13,5.75,35.19,17.92,47,34.7,5.4,7.67,10.63,15.46,16.09,23.08,14.61,20.45,29.51,40.69,43.89,61.3,15.53,22.25,24.19,47.28,28.16,74,4.86,32.56,3.55,65.12-.55,97.6Zm10.84-214.79c-10.09-9.12-18.55-19.61-25.71-31.16-20.35-32.76-26.79-68.75-25.61-106.75.75-24.21,5.74-47.68,11.27-71.02,7.55-31.82,13.21-63.92,16.84-96.41.82-7.32,2.18-14.58,3.54-21.84.02-.02.02-.03.02-.05,4.08-15.63,10.12-39.74,12.36-48.83,5.48-22.01,14.33-42.65,24.84-62.62,10.12-19.25,20.67-38.29,31.07-57.4,4.86-8.92,10.47-17.35,16.87-25.24,3.6-4.41,7.83-7.95,13.16-10.27,5.32-2.32,10.24-2.34,14.86,1.17,3.86,2.95,7.84,5.87,11.18,9.38,27.45,28.87,55.95,56.66,86.38,82.34,18.5,15.61,26.05,34.71,24.42,58.66-1.48,21.55-5.97,42.35-12.27,62.81-4.2,13.61-9.4,26.91-14.41,40.26-1.57,4.18-3.78,8.17-6.09,12.01-3.38,5.66-4.71,5.87-9.5,1.98-10.77-8.72-22.12-16.84-30.85-27.82-.71-.88-1.49-1.72-2.37-2.4-.78-.62-3.91-3.95-7.58-7.75,3-3.66,4.54-8.37,4.58-13.13.25-13.3-7.43-22.08-19.69-22.55-12.86-.48-22.02,8.43-22.05,21.42-.03,12.35,7.9,20.72,19.82,21.24,5.03.23,9.21-.86,12.5-2.83,3.18,3.98,6,7.31,6.51,8.07,3.89,5.98,7.8,11.93,11.93,17.75,22.5,31.59,33.65,66.75,33.48,105.52-.03,8.26.22,16.52-1.09,24.73-2.75,17.19-10.95,31.87-21.58,45.23-12.61,15.89-26.3,30.84-41.48,44.38-16.52,14.76-33.02,29.53-50.55,43.11-8.34,6.47-17.33,11.87-27.27,15.58-14.09,5.24-26.53,2.37-37.54-7.58Zm100.6,312.75c-12.04-21.78-21.3-44.66-27.97-68.62-7.98-28.67-13.35-57.75-13.69-87.58-.66-58.64,18.01-110.36,55.21-155.7,21.33-26.02,45.55-48.77,72.87-68.33,11.93-8.55,24.81-15.5,37.53-22.73,23.24-13.23,45.05-28.36,64.65-46.61,9.89-9.21,20.12-18.06,30.25-26.99,7.07-6.24,15.12-11.06,23.45-15.41,14.41-7.54,31.33-7.09,47.29-5.4,15.3,1.61,28.97,1.43,44.6,3.08,19.5,3.38,39.02,4.24,57.95,10.06.78.25,1.58.49,2.37.75,8.34,2.77,15.9,6.72,22.05,13.06,6.01,6.2,9.87,13.2,7.49,22.32-.85,3.24-1.08,6.67-2.05,9.87-8.03,26.7-19.1,52.09-32.63,76.43-8.44,15.18-20.96,25.41-38.02,29.37-6.92,1.6-14.06,2.48-21.15,3.12-37.79,3.38-75.7,4.11-113.59,5.17-.14,0-.29,0-.48.02-2.4.03-4.84-.06-7.31.18-3.21.11-7.14.23-11.29.4-.17-.83-.4-1.66-.71-2.48-.11-.31-.23-.63-.37-.94-.11-.26-.23-.54-.37-.8-.09-.22-.2-.43-.31-.65-.66-1.25-1.45-2.48-2.34-3.64-.25-.32-.51-.65-.77-.95-1.71-2.03-3.74-3.84-5.95-5.31-.29-.2-.58-.38-.89-.57-.57-.34-1.14-.66-1.72-.95-.28-.15-.55-.29-.85-.42-.26-.12-.54-.25-.82-.35-.14-.06-.28-.12-.43-.17-.29-.12-.58-.23-.89-.32-.31-.11-.63-.22-.95-.29-.31-.09-.6-.17-.91-.23-.68-.17-1.34-.28-2-.34-.31-.05-.63-.06-.95-.08-11.12-.48-22.93,10.47-23.16,21.48-.29,13.26,8.29,22.96,20.47,23.16.32.02.63.02.94.02.66,0,1.31-.02,1.94-.08.11,0,.22,0,.32-.02.31-.02.62-.05.91-.09,1.57-.17,3.06-.48,4.48-.91.34-.09.66-.2,1-.32.32-.11.65-.23.97-.37.48-.18.94-.4,1.37-.62.28-.12.54-.26.8-.4.55-.31,1.09-.63,1.6-.95.23-.17.48-.34.71-.51.28-.2.54-.4.8-.62.18-.14.35-.28.51-.42.17-.14.32-.28.49-.43,1.2-1.09,2.26-2.34,3.2-3.72.17-.28.35-.55.52-.83.42-.69.81-1.4,1.15-2.15.12-.23.23-.48.32-.72.28-.63.52-1.28.75-1.95.26-.77.48-1.57.68-2.38.09-.38.17-.77.25-1.17.14-.69.25-1.4.32-2.12l.05-.32c4.21-.14,8.01-.31,10.77-.43,1.28-.06,2.34-.11,3.09-.12.54-.03.92-.03,1.15-.03,25.51.34,51.04.63,76.57.75,13.9.08,27.74,1.15,41.6,2.01,19.09,1.22,30.13,14.86,28.5,34.37-1.28,15.38-4.08,30.5-8.58,45.26-16.06,52.7-38.66,102.39-68.24,148.93-17.95,28.24-37.02,55.63-58.92,80.94-17.73,20.5-37.19,39.22-60.26,53.83-21.13,13.38-43.95,20.58-69.18,20.16-22.81-.37-42.51-8.52-59.5-23.24-14.33-12.4-25.56-27.42-34.71-43.97Zm330.24,683.53c.74,5.55.95,11.24.66,16.84-.89,16.29-11.21,26.31-27.47,26.78-10.61.29-20.85-2.03-30.94-5.17-14.39-4.51-27.74-11.29-40.89-18.56-36.68-20.29-69.27-46.05-100.03-74.28-11.33-10.4-22.3-21.15-32.25-32.94-21.02-24.91-33.96-53.75-42.12-84.95-8.97-34.25-13.84-69.08-14.61-112.24-.35-10.33.45-28.3,4.78-45.94,4.55-18.53,14.59-32.68,32.76-40.16,7.07-2.91,14.64-4.12,22.04-3.78,33.28,1.49,65.35,8.3,95.4,23.3,25.61,12.78,43.4,32.79,55.01,58.67,10.33,23.05,16.93,47.28,22.56,71.79,4.86,21.21,7.63,42.78,11.3,64.21,4.31,25.08,9.75,49.98,20.73,73.3,12.43,26.36,19.18,54.38,23.07,83.14Z"/>
</svg>